# xmcd CD database file
#
# Track frame offsets:
#	150
#	35910
#	74575
#	93637
#	118720
#	150525
#	186652
#	209665
#
# Disc length: 3015 seconds
#
# Revision: 2
# Processed by: cddbd v1.4b41PL1 Copyright (c) Steve Scherf et al.
# Submitted via: Feurio! 1.50.2ß - http://www.feurio.com
#
DISCID=800bc508
DTITLE=Grateful Dead - Floating Celestial Disc 1 Oakland, CA 12/31/91
DYEAR=1900
DGENRE=
TTITLE0=Hell In A Bucket
TTITLE1=Candy Man
TTITLE2=Beat It On Down The Line
TTITLE3=Must Have Been The Roses
TTITLE4=Black-Throated Wind
TTITLE5=West LA Fadeaway
TTITLE6=When I Paint My Masterpiece
TTITLE7=Sunshine Daydream
EXTD=
EXTT0=
EXTT1=
EXTT2=
EXTT3=
EXTT4=
EXTT5=
EXTT6=
EXTT7=
PLAYORDER=
